<?xml version="1.0" encoding="utf-8"?>
<!-- Generator: Adobe Illustrator 26.0.2, SVG Export Plug-In . SVG Version: 6.00 Build 0)  -->
<svg version="1.1" id="Layer_1" xmlns="http://www.w3.org/2000/svg" xmlns:xlink="http://www.w3.org/1999/xlink" x="0px" y="0px"
	 viewBox="0 0 711.7 226.3" style="enable-background:new 0 0 711.7 226.3;" xml:space="preserve">
<style type="text/css">
	.st0{fill:#26235E;}
	.st1{font-family:'Poppins-Bold';}
	.st2{font-size:155.16px;}
	.st3{fill:#E92C4A;}
	.st4{font-family:'Poppins-Regular';}
	.st5{fill:#FFFFFF;}
</style>
<g id="Layer_2_00000030466163244435630220000013351863155717867700_">
	<g id="Layer_1-2">
		<text transform="matrix(1 0 0 1 -2 167.27)" class="st0 st1 st2">T</text>
		<text transform="matrix(1 0 0 1 89.7 167.27)" class="st3 st4 st2">   </text>
		<text transform="matrix(1 0 0 1 213.98 167.27)" class="st0 st1 st2">URPAL</text>
		<circle class="st3" cx="151.7" cy="114.2" r="55.5"/>
		<circle class="st5" cx="152.1" cy="114.6" r="4"/>
		<circle class="st5" cx="141.8" cy="108.9" r="1.9"/>
		<circle class="st5" cx="152.5" cy="102.9" r="1.9"/>
		<circle class="st5" cx="163.1" cy="108.7" r="1.9"/>
		<circle class="st5" cx="163.1" cy="121" r="1.9"/>
		<circle class="st5" cx="152.6" cy="127.1" r="1.9"/>
		<circle class="st5" cx="141.6" cy="121" r="1.9"/>
		<polygon class="st5" points="115.7,89.8 148.7,70 149.1,93.2 133.8,102.8 		"/>
		<polygon class="st5" points="155.3,70.9 154.9,92.6 170.2,102 188.1,89.6 		"/>
		<polygon class="st5" points="172.1,106 191.9,94.5 192.1,135.4 172.3,124.3 		"/>
		<polygon class="st5" points="154.2,138.2 171.7,128.2 187,140.1 155.9,159.5 		"/>
		<polygon class="st5" points="116.7,138.8 133.1,128.4 148.7,137.6 148.5,158.2 		"/>
		<polygon class="st5" points="112.9,95.8 131,105 131.2,124.6 112.5,133.1 		"/>
	</g>
</g>
</svg>
